<?xml version="1.0" standalone="no"?>
<svg version="1.1" id="Layer_1" xmlns="http://www.w3.org/2000/svg" xmlns:xlink="http://www.w3.org/1999/xlink" x="0px" y="0px" viewBox="0 0 595.276 595.276" enable-background="new 0 0 595.276 595.276" xml:space="preserve">
<path id="color_x5F_7" fill="#263238" d="M491.593,502.302c0,1.77-1.435,3.204-3.204,3.204H83.07c-1.77,0-3.204-1.435-3.204-3.204
	s1.435-3.204,3.204-3.204h108.878h5.314h3.147h1.956h2.88h0.884h2.838h6.154h2.746h4.924h2.836h3.857h2.992h4.797h2.951h7.578
	h28.608l-0.127,0.251l30.825,0.375c0.002-0.203-0.006-0.414-0.017-0.626h22.512c-0.212,0.556,0.209,1.158,0.814,1.131l8.866-0.392
	l1.174-0.738h147.933C490.158,499.098,491.593,500.532,491.593,502.302z M242.955,276.428c0.215-0.468,0.964-0.247,0.901,0.209
	c-0.281,2.022-0.49,4.064-0.328,6.079c0.003,0.036,0.009,0.072,0.012,0.108c0.113-0.077,0.226-0.154,0.339-0.224
	c-0.283-2.676,0.33-5.597,1.383-7.889c0.215-0.468,0.964-0.247,0.901,0.209c-0.281,2.022-0.49,4.064-0.328,6.079
	c0.02,0.25,0.051,0.499,0.088,0.746c0.004-0.001,0.008-0.002,0.013-0.003c-0.047-2.366,0.533-4.829,1.447-6.819
	c0.215-0.468,0.964-0.247,0.901,0.209c-0.281,2.022-0.49,4.064-0.328,6.079c0.009,0.11,0.025,0.219,0.037,0.328
	c0.112,0.002,0.225,0.005,0.34,0.011c0.075-2.127,0.625-4.283,1.442-6.061c0.215-0.468,0.964-0.247,0.901,0.209
	c-0.281,2.022-0.49,4.064-0.328,6.079c1.459,2.311,2.128,4.766,1.939,7.278l2.167,0.053c0.094,0.014,0.167-0.006,0.247-0.014
	c0.026-0.003,0.056,0,0.081-0.005c0.064-0.012,0.119-0.031,0.172-0.057c0.294-0.143,0.43-0.47,0.294-0.903l-7.141-22.771
	c-0.199-0.636-0.878-1.228-1.516-1.323l-10.092-0.246c-0.609-0.091-0.946,0.311-0.803,0.901c0.007,0.028,0,0.05,0.009,0.078
	l5.819,18.557C241.46,280.934,242.03,278.44,242.955,276.428z M307.107,499.724c0.002-0.203-0.006-0.414-0.017-0.626
	c-0.199-3.892-2.513-9.204-2.513-9.204l-0.235-0.016l-4.701-0.324c-0.692-0.048-1.352-0.313-1.888-0.759l-1.517-1.26l-1.255-1.043
	l-2.594,3.584c-1.379,1.874-4.028,2.571-6.289,3.002l-4.818,0.919c-1.596,0.305-2.965,1.341-3.709,2.81l-1.161,2.291l-0.127,0.251
	L307.107,499.724z M344.411,482.651l-2.699-0.3l-1.258-0.14l-0.293,4.857c-0.174,2.553-2.235,4.793-4.091,6.555l-0.099,0.094
	l-1.689,0.416c-1.754,0.432-3.209,1.65-3.945,3.299l-0.723,1.621c-0.007,0.015-0.008,0.03-0.013,0.045
	c-0.212,0.556,0.209,1.158,0.814,1.131l8.866-0.392l1.174-0.738l19.188-12.063c-2.284-3.627-8.204-7.497-8.204-7.497l-1.273,0.706
	l-3.54,1.963C345.952,482.581,345.178,482.736,344.411,482.651z"></path>
<path id="color_x5F_6" fill="#78909C" d="M297.843,385.256h-12.257l-4.072-35.613h0c14.803,6.311,38.619,4.379,52.818-3.195
	l0.519,1.931c2.849,10.602,1.769,21.877-3.041,31.745l-6.293,12.91l-27.777-3.945L297.843,385.256z M254.782,289.088
	c-0.025,0.005-0.055,0.002-0.081,0.005C254.728,289.091,254.755,289.094,254.782,289.088z M236.5,263.788l10.092,0.246
	c0.638,0.095,1.317,0.687,1.516,1.323l7.141,22.771c0.136,0.434,0,0.76-0.294,0.903c0.467-0.198,0.829-0.79,0.674-1.283
	l-7.141-22.771c-0.199-0.636-0.878-1.228-1.516-1.323l-10.092-0.246c-0.638-0.095-1.415,0.548-1.215,1.183l0.033,0.097
	C235.554,264.099,235.891,263.697,236.5,263.788z"></path>
<path id="color_x5F_5" fill="#FFD2BB" d="M297.752,488.794l-1.517-1.26l-0.743-10.882l-0.779-7.298l-0.053-0.496l-6.875-64.379h0
	l-2.198-19.222h12.257l-0.102,3.833l27.777,3.945l-9.024,18.513c6.664,6.47,11.848,14.306,15.196,22.97l10.958,28.356l0.203,0.526
	l2.255,5.834l5.06,11.012l-3.54,1.963c-0.674,0.374-1.448,0.529-2.215,0.444l-2.699-0.3l-5.228-8.269l-5.207-7.97l-0.32-0.49
	l-21.214-32.467l-3.693,35.522l-0.053,0.508l-0.776,7.466l-0.879,13.225l-4.701-0.324
	C298.949,489.505,298.289,489.24,297.752,488.794z M290.706,302.632c0.706-5.514-0.906-9.756-2.462-13.724l-7.315,15.924
	c-4.842-1.583-8.803-2.94-12.576-4.42c-5.312-2.085-10.272-4.424-16.844-8.012c0.427-1.121,0.694-2.238,0.778-3.345
	c0.19-2.512-0.479-4.967-1.939-7.278c-0.162-2.016,0.047-4.057,0.328-6.079c0.063-0.455-0.686-0.676-0.901-0.209
	c-0.817,1.778-1.367,3.934-1.442,6.061c-0.115-0.005-0.228-0.009-0.34-0.011c-0.012-0.109-0.028-0.218-0.037-0.328
	c-0.162-2.016,0.047-4.057,0.328-6.079c0.063-0.455-0.686-0.676-0.901-0.209c-0.914,1.99-1.494,4.453-1.447,6.819
	c-0.004,0.001-0.008,0.002-0.013,0.003c-0.037-0.247-0.068-0.495-0.088-0.746c-0.162-2.016,0.047-4.057,0.328-6.079
	c0.063-0.455-0.686-0.676-0.901-0.209c-1.053,2.292-1.667,5.213-1.383,7.889c-0.113,0.07-0.226,0.146-0.339,0.224
	c-0.003-0.036-0.009-0.072-0.012-0.108c-0.162-2.016,0.047-4.057,0.328-6.079c0.063-0.455-0.686-0.676-0.901-0.209
	c-0.925,2.013-1.495,4.507-1.43,6.896c0.033,1.232,0.225,2.438,0.645,3.532c0.404,3.07,1.383,6.053,2.901,8.789
	c-0.008,0.009-0.012,0.017-0.02,0.026c5.325,4.815,11.883,9.374,18.66,14.238c2.798,2.008,5.633,4.067,8.436,6.22
	c3.354,2.576,7.525,3.973,11.735,3.571c2.086-0.199,3.622-0.841,4.739-2.616C289.411,312.192,290.1,307.366,290.706,302.632z
	 M318.715,237.006c0.209-0.963,0.326-1.96,0.326-2.986l-2.608-2.076c-4.759-0.985-9.336-2.868-13.492-5.688
	c-4.749-3.223-9.132-7.478-11.629-12.502l2.181,24.198c0,5.589,4.562,10.107,7.94,10.107h3.57c0.665,0,1.315-0.062,1.955-0.152
	l0.46,6.829l0.38,5.642l1.578-0.166c3.031-4.052,6.406-7.642,10.358-9.98l-0.035-0.521l-0.857-12.718L318.715,237.006z
	 M323.228,269.376c3.549,5.025,6.639,9.196,9.701,13.313c3.475,4.674,6.914,9.279,10.943,14.984
	c-2.484,3.409-5.411,8.338-8.402,13.483c-2.462,4.234-4.966,8.613-7.302,12.417c-0.669,1.09-1.323,2.129-1.96,3.106
	c-1.423-0.467-2.884-0.811-4.367-1.014c-3.21-1.253-7.375-0.655-10.433,0.73c-0.469,0.212-0.252,0.963,0.204,0.902
	c2.024-0.271,4.066-0.469,6.081-0.296c0.036,0.003,0.072,0.009,0.108,0.013c-0.078,0.112-0.155,0.225-0.225,0.337
	c-2.674-0.297-5.598,0.301-7.896,1.342c-0.469,0.212-0.252,0.963,0.204,0.902c2.024-0.271,4.066-0.469,6.081-0.296
	c0.25,0.021,0.498,0.054,0.745,0.092c-0.001,0.004-0.002,0.008-0.003,0.013c-2.365-0.059-4.832,0.508-6.826,1.411
	c-0.469,0.212-0.252,0.963,0.204,0.902c2.024-0.271,4.066-0.469,6.081-0.296c0.11,0.009,0.218,0.026,0.328,0.039
	c0.001,0.112,0.004,0.225,0.009,0.34c-2.127,0.064-4.286,0.603-6.069,1.41c-0.469,0.212-0.252,0.963,0.204,0.902
	c2.024-0.271,4.066-0.469,6.081-0.296c2.928,1.871,5.764,3.337,8.865,2.835c1.17-0.189,2.17-0.925,2.708-1.964
	c0.863-0.999,1.716-1.965,2.561-2.903c4.373-4.861,8.497-8.993,12.317-12.979c6.252-6.525,11.699-12.695,16.115-21.174
	c-10.213-14.368-15.179-25.404-25.392-39.772l0,0C327.991,257.858,324.643,261.886,323.228,269.376z"></path>
<path id="color_x5F_4" fill="#00CEC9" d="M162.004,193.229v38.166c0,2.682,2.175,4.857,4.857,4.857h31.05h0.883h19.388
	l15.193,12.694l-4.061-12.694h0.293c2.682,0,4.857-2.175,4.857-4.857v-31.008v-0.764v-7.016c0-2.682-2.174-4.857-4.857-4.857
	h-62.745c-0.162,0-0.316,0.032-0.474,0.048c-0.311,0.031-0.611,0.088-0.902,0.174c-1.89,0.561-3.284,2.227-3.443,4.258
	c-0.01,0.127-0.038,0.248-0.038,0.378V193.229z M187.308,200.922c0.825-0.192,1.704-0.232,2.581-0.142
	c1.445,0.148,2.887,0.65,4.082,1.406c0.513,0.325,1.969,1.648,2.721,2.335c0.027,0.024,0.059,0.036,0.09,0.052
	c0.031-0.016,0.063-0.027,0.09-0.052c0.752-0.688,2.208-2.011,2.721-2.335c1.195-0.756,2.637-1.258,4.082-1.406
	c0.877-0.09,1.756-0.05,2.581,0.142c4.826,1.124,4.7,6.811,3.013,10.751c-1.182,2.761-2.94,5.303-4.845,7.521
	c-1.099,1.28-6.188,5.868-7.642,7.329c-1.454-1.461-6.543-6.049-7.642-7.329c-1.905-2.218-3.663-4.76-4.845-7.521
	C182.609,207.733,182.482,202.046,187.308,200.922z M321.62,188.04c1.905,0,3.537-1.107,4.333-2.704
	c0.111-0.223,0.201-0.455,0.277-0.696c0.146-0.463,0.247-0.946,0.247-1.457v-38.788c0-2.682-2.175-4.857-4.857-4.857h-62.745
	c-2.682,0-4.857,2.174-4.857,4.857v38.788c0,2.682,2.174,4.857,4.857,4.857h0.293l-4.061,12.694l15.193-12.694H321.62z
	 M281.774,164.198c4.966-3.89,7.889-10.699,7.13-16.961c2.38,0.398,4.053,2.73,4.469,5.106s0.031,4.776,0.031,7.189
	c0,0.079,0,0.158,0,0.236c3.388-1.08,7.957-2.838,11.489-2.432c1.024,0.118,2.125,0.344,2.803,1.12s0.981,2.671,0.003,2.994
	c1.06,0.571,1.647,1.902,1.352,3.07c-0.295,1.168-1.383,2.504-2.588,2.504c0.872,0.718,1.311,1.926,1.105,3.036
	c-0.206,1.111-0.896,2.406-1.968,2.764c0.981,1.684,1.033,5.115-0.835,5.671c-7.313,2.176-15.362-0.244-22.992-0.244V164.198z
	 M272.132,162.679h8.509v16.083h-8.509V162.679z"></path>
<path id="color_x5F_3" fill="#E84393" d="M286.446,283.822c-1.818-1.155-3.501-2.555-4.959-4.267
	c-4.074-4.783-6.06-12.229-3.801-18.379c1.908-5.194,6.507-8.999,7.261-14.564c0.992-7.326-5.011-13.268-7.076-20.297
	c-6.371-21.685,24.66-34.44,38.033-26.852c8.472,4.807,14.086,14.748,16.323,25.234c2.09,9.794,1.553,20.062,0.111,30.03
	c-1.27-2.025-2.961-3.711-5.16-4.601c-0.911-0.369-1.864-0.571-2.834-0.668c-1.531-0.153-3.107-0.016-4.646,0.252l-0.857-12.718
	l-0.126,0.013c0.209-0.963,0.326-1.96,0.326-2.986l-2.608-2.076c-4.759-0.985-9.336-2.868-13.492-5.688
	c-4.749-3.223-9.132-7.478-11.629-12.502l2.181,24.198c0,5.589,4.562,10.107,7.94,10.107h3.57c0.665,0,1.315-0.062,1.955-0.152
	l0.46,6.829c-2.488,1.447-4.971,3.086-7.256,4.766c-3.046,2.24-5.746,4.547-7.625,6.559
	C285.495,273.603,285.094,278.839,286.446,283.822z"></path>
<path id="color_x5F_2" fill="#FBC02D" d="M414.991,302.254c-0.003,0-0.006,0-0.009,0c-0.205-0.005-0.367-0.176-0.362-0.381
	c0.025-0.987,0.037-1.977,0.037-2.97v-0.233c0-0.205,0.166-0.371,0.371-0.371s0.371,0.166,0.371,0.371v0.233
	c0,0.999-0.012,1.995-0.037,2.988C415.357,302.094,415.192,302.254,414.991,302.254z M402.597,246.642
	c0.057,0,0.113-0.013,0.167-0.039c0.184-0.092,0.257-0.316,0.165-0.499c-0.446-0.889-0.904-1.771-1.372-2.647
	c-0.098-0.182-0.325-0.248-0.503-0.152c-0.181,0.096-0.25,0.322-0.153,0.503c0.465,0.87,0.921,1.747,1.365,2.63
	C402.331,246.567,402.461,246.642,402.597,246.642z M414.505,310.431c0.189,0,0.351-0.144,0.369-0.336
	c0.094-0.99,0.175-1.983,0.243-2.98c0.014-0.205-0.141-0.382-0.345-0.396c-0.205-0.009-0.382,0.141-0.396,0.345
	c-0.068,0.99-0.148,1.977-0.242,2.96c-0.019,0.204,0.131,0.386,0.335,0.405C414.481,310.431,414.493,310.431,414.505,310.431z
	 M408.892,261.72c0.039,0,0.08-0.006,0.119-0.02c0.194-0.066,0.299-0.276,0.233-0.471c-0.319-0.946-0.65-1.886-0.992-2.82
	c-0.07-0.192-0.283-0.291-0.477-0.221c-0.193,0.071-0.292,0.284-0.221,0.477c0.34,0.929,0.668,1.863,0.986,2.803
	C408.592,261.622,408.737,261.72,408.892,261.72z M404.561,346.524c-0.405,0.908-0.821,1.809-1.248,2.704
	c-0.089,0.186-0.01,0.407,0.175,0.496c0.052,0.025,0.107,0.036,0.16,0.036c0.139,0,0.271-0.078,0.335-0.211
	c0.43-0.901,0.849-1.808,1.257-2.721c0.083-0.188-0.001-0.407-0.188-0.491C404.865,346.254,404.645,346.336,404.561,346.524z
	 M414.36,290.508c0.07,0.985,0.128,1.973,0.173,2.965c0.009,0.199,0.173,0.355,0.371,0.355c0.005,0,0.011,0,0.017,0
	c0.205-0.009,0.363-0.183,0.354-0.388c-0.045-0.998-0.103-1.993-0.173-2.985c-0.015-0.205-0.207-0.362-0.397-0.344
	C414.5,290.126,414.345,290.304,414.36,290.508z M407.63,338.934c-0.34,0.934-0.691,1.863-1.055,2.786
	c-0.075,0.191,0.018,0.407,0.209,0.482c0.045,0.018,0.091,0.026,0.136,0.026c0.148,0,0.288-0.089,0.345-0.235
	c0.366-0.93,0.72-1.865,1.062-2.805c0.07-0.193-0.029-0.406-0.222-0.476C407.913,338.643,407.7,338.742,407.63,338.934z
	 M406.007,254.068c0.048,0,0.096-0.009,0.143-0.029c0.189-0.079,0.279-0.296,0.2-0.486c-0.382-0.917-0.777-1.829-1.183-2.734
	c-0.084-0.188-0.304-0.271-0.49-0.188c-0.187,0.084-0.271,0.304-0.187,0.491c0.403,0.899,0.794,1.805,1.175,2.717
	C405.725,253.982,405.862,254.068,406.007,254.068z M413.391,318.55c0.021,0.004,0.041,0.005,0.062,0.005
	c0.178,0,0.335-0.129,0.366-0.31c0.163-0.982,0.313-1.967,0.451-2.956c0.028-0.204-0.113-0.391-0.316-0.419
	c-0.197-0.023-0.392,0.113-0.419,0.316c-0.137,0.983-0.286,1.962-0.448,2.937C413.052,318.325,413.188,318.516,413.391,318.55z
	 M197.714,236.56c-0.109,0.174-0.056,0.403,0.118,0.512c0.061,0.038,0.13,0.057,0.197,0.057c0.124,0,0.245-0.062,0.315-0.174
	c0.148-0.236,0.302-0.467,0.451-0.702h-0.883C197.846,236.356,197.778,236.457,197.714,236.56z M413.816,281.969
	c-0.203,0.029-0.345,0.217-0.316,0.42c0.138,0.978,0.264,1.96,0.378,2.946c0.022,0.189,0.183,0.329,0.369,0.329
	c0.015,0,0.029-0.001,0.044-0.003c0.204-0.024,0.35-0.208,0.326-0.412c-0.115-0.992-0.242-1.98-0.381-2.964
	C414.208,282.081,414.022,281.937,413.816,281.969z M411.237,269.569c0.03,0,0.062-0.004,0.094-0.012
	c0.199-0.052,0.318-0.255,0.266-0.453c-0.252-0.966-0.515-1.927-0.791-2.883c-0.057-0.197-0.265-0.31-0.46-0.254
	c-0.197,0.057-0.31,0.263-0.254,0.46c0.274,0.95,0.536,1.905,0.786,2.864C410.922,269.458,411.072,269.569,411.237,269.569z
	 M400.968,353.874c-0.467,0.876-0.945,1.746-1.434,2.608c-0.101,0.178-0.038,0.405,0.141,0.506c0.058,0.033,0.12,0.048,0.183,0.048
	c0.129,0,0.255-0.068,0.324-0.189c0.491-0.868,0.972-1.743,1.442-2.624c0.096-0.181,0.028-0.406-0.153-0.503
	C401.29,353.626,401.065,353.693,400.968,353.874z M234.596,200.299c0.173-0.111,0.223-0.34,0.112-0.513
	c-0.057-0.09-0.148-0.145-0.245-0.163v0.764C234.508,200.358,234.552,200.328,234.596,200.299z M410.616,330.9
	c-0.2-0.061-0.403,0.057-0.459,0.255c-0.273,0.953-0.557,1.901-0.853,2.845c-0.062,0.195,0.047,0.404,0.243,0.465
	c0.037,0.012,0.074,0.017,0.111,0.017c0.158,0,0.305-0.102,0.354-0.26c0.299-0.95,0.585-1.904,0.859-2.863
	C410.927,331.161,410.813,330.956,410.616,330.9z M413.093,277.557c0.202-0.038,0.334-0.232,0.297-0.433
	c-0.184-0.981-0.379-1.958-0.587-2.931c-0.044-0.2-0.239-0.33-0.441-0.285c-0.2,0.042-0.329,0.24-0.286,0.441
	c0.206,0.966,0.401,1.937,0.584,2.913c0.033,0.178,0.189,0.303,0.364,0.303C413.047,277.564,413.07,277.562,413.093,277.557z
	 M411.748,326.576c0.029,0.007,0.058,0.01,0.086,0.01c0.168,0,0.321-0.115,0.361-0.285c0.231-0.969,0.449-1.941,0.656-2.917
	c0.042-0.201-0.086-0.398-0.287-0.44c-0.202-0.038-0.398,0.086-0.44,0.287c-0.205,0.971-0.422,1.936-0.651,2.898
	C411.425,326.328,411.549,326.528,411.748,326.576z M277.245,414.905c0.021,0.004,0.043,0.006,0.064,0.006
	c0.177,0,0.334-0.127,0.366-0.308c0.035-0.202-0.1-0.395-0.302-0.429c-0.977-0.171-1.95-0.354-2.919-0.548
	c-0.201-0.042-0.397,0.09-0.437,0.291c-0.04,0.201,0.09,0.397,0.291,0.437C275.283,414.55,276.262,414.734,277.245,414.905z
	 M192.46,351.099c-0.183,0.092-0.258,0.316-0.165,0.498c0.445,0.889,0.902,1.772,1.369,2.649c0.067,0.125,0.196,0.197,0.328,0.197
	c0.059,0,0.119-0.014,0.174-0.044c0.181-0.096,0.25-0.321,0.153-0.503c-0.464-0.871-0.918-1.748-1.361-2.631
	C192.867,351.081,192.645,351.008,192.46,351.099z M195.543,240.92c-0.178-0.1-0.406-0.038-0.506,0.141
	c-0.491,0.869-0.971,1.744-1.44,2.626c-0.096,0.181-0.028,0.406,0.153,0.502c0.055,0.03,0.115,0.044,0.174,0.044
	c0.133,0,0.262-0.071,0.328-0.197c0.466-0.877,0.943-1.746,1.431-2.609C195.785,241.248,195.722,241.021,195.543,240.92z
	 M191.736,248.19c-0.186-0.087-0.407-0.009-0.495,0.176c-0.428,0.901-0.846,1.809-1.253,2.722c-0.083,0.187,0.001,0.407,0.189,0.49
	c0.049,0.022,0.1,0.032,0.151,0.032c0.143,0,0.278-0.082,0.34-0.221c0.404-0.908,0.819-1.809,1.245-2.705
	C192,248.5,191.922,248.278,191.736,248.19z M398.673,239.469c0.065,0,0.13-0.017,0.189-0.052c0.176-0.105,0.235-0.333,0.13-0.509
	c-0.508-0.856-1.026-1.705-1.554-2.546c-0.11-0.174-0.339-0.225-0.512-0.117c-0.174,0.109-0.226,0.338-0.117,0.512
	c0.525,0.836,1.04,1.68,1.545,2.531C398.423,239.404,398.547,239.469,398.673,239.469z M200.742,365.193
	c-0.169,0.117-0.211,0.348-0.095,0.517c0.566,0.82,1.141,1.632,1.727,2.435c0.073,0.1,0.186,0.153,0.301,0.153
	c0.076,0,0.152-0.023,0.218-0.071c0.166-0.121,0.202-0.353,0.082-0.519c-0.582-0.799-1.154-1.605-1.716-2.421
	C201.142,365.119,200.91,365.077,200.742,365.193z M179.91,296.032c-0.023,0.954-0.034,1.911-0.034,2.871v0.117
	c0,0.205,0.166,0.371,0.371,0.371c0.205,0,0.371-0.166,0.371-0.371v-0.117c0-0.954,0.012-1.905,0.034-2.853
	c0.005-0.205-0.157-0.375-0.362-0.38C180.082,295.658,179.916,295.827,179.91,296.032z M186.228,335.995
	c-0.194,0.065-0.299,0.276-0.234,0.47c0.318,0.946,0.648,1.887,0.989,2.821c0.055,0.15,0.197,0.244,0.349,0.244
	c0.042,0,0.085-0.007,0.127-0.023c0.193-0.07,0.292-0.284,0.222-0.477c-0.339-0.929-0.667-1.862-0.983-2.803
	C186.633,336.034,186.423,335.931,186.228,335.995z M188.447,255.713c-0.191-0.074-0.406,0.019-0.481,0.21
	c-0.365,0.929-0.718,1.865-1.059,2.805c-0.07,0.193,0.03,0.406,0.223,0.476c0.042,0.015,0.085,0.022,0.127,0.022
	c0.152,0,0.295-0.094,0.349-0.245c0.339-0.934,0.69-1.864,1.052-2.787C188.732,256.003,188.638,255.788,188.447,255.713z
	 M189.081,343.66c-0.189,0.079-0.279,0.297-0.2,0.486c0.382,0.918,0.775,1.83,1.18,2.736c0.062,0.138,0.197,0.22,0.34,0.22
	c0.05,0,0.102-0.01,0.151-0.032c0.187-0.084,0.271-0.304,0.188-0.491c-0.402-0.9-0.793-1.806-1.173-2.718
	C189.488,343.67,189.27,343.584,189.081,343.66z M216.637,383.87c-0.141,0.149-0.135,0.384,0.014,0.525
	c0.723,0.686,1.455,1.361,2.195,2.028c0.071,0.065,0.16,0.096,0.249,0.096c0.102,0,0.203-0.041,0.276-0.123
	c0.137-0.152,0.125-0.387-0.027-0.525c-0.736-0.663-1.463-1.336-2.182-2.017C217.013,383.716,216.778,383.721,216.637,383.87z
	 M229.248,394.326c-0.119,0.167-0.08,0.399,0.087,0.518c0.812,0.578,1.631,1.148,2.458,1.706c0.064,0.044,0.136,0.064,0.208,0.064
	c0.119,0,0.236-0.057,0.308-0.163c0.115-0.17,0.07-0.401-0.1-0.516c-0.822-0.556-1.636-1.121-2.443-1.696
	C229.599,394.12,229.367,394.16,229.248,394.326z M241.254,195.492c-0.873,0.477-1.739,0.965-2.599,1.463
	c-0.178,0.103-0.238,0.33-0.135,0.508c0.069,0.119,0.194,0.185,0.322,0.185c0.063,0,0.127-0.016,0.186-0.05
	c0.854-0.495,1.715-0.98,2.582-1.454c0.18-0.098,0.246-0.324,0.148-0.504C241.66,195.459,241.434,195.393,241.254,195.492z
	 M248.583,191.813c-0.904,0.415-1.802,0.841-2.693,1.277c-0.184,0.09-0.26,0.313-0.17,0.497c0.065,0.131,0.197,0.208,0.334,0.208
	c0.055,0,0.111-0.012,0.163-0.038c0.885-0.434,1.777-0.857,2.676-1.269c0.186-0.086,0.268-0.306,0.183-0.493
	C248.99,191.81,248.77,191.729,248.583,191.813z M256.635,188.872c-0.072-0.192-0.285-0.289-0.478-0.217
	c-0.934,0.352-1.862,0.714-2.784,1.089c-0.19,0.077-0.282,0.294-0.205,0.484c0.059,0.144,0.198,0.232,0.344,0.232
	c0.047,0,0.094-0.009,0.14-0.027c0.916-0.372,1.838-0.733,2.767-1.082C256.61,189.279,256.708,189.065,256.635,188.872z
	 M210.909,378.015c-0.151,0.139-0.161,0.374-0.023,0.525c0.674,0.734,1.357,1.46,2.049,2.176c0.073,0.075,0.17,0.113,0.267,0.113
	c0.093,0,0.186-0.035,0.258-0.104c0.147-0.142,0.151-0.377,0.009-0.525c-0.687-0.712-1.366-1.431-2.035-2.161
	C211.294,377.886,211.059,377.877,210.909,378.015z M205.601,371.78c-0.16,0.128-0.186,0.361-0.059,0.522
	c0.621,0.779,1.252,1.549,1.893,2.311c0.074,0.088,0.179,0.133,0.285,0.133c0.084,0,0.169-0.028,0.239-0.087
	c0.157-0.132,0.177-0.366,0.045-0.523c-0.636-0.757-1.263-1.523-1.88-2.296C205.995,371.677,205.762,371.651,205.601,371.78z
	 M180.521,291.205c0.194,0,0.357-0.15,0.37-0.346c0.067-0.99,0.147-1.977,0.239-2.961c0.019-0.204-0.131-0.385-0.336-0.404
	c-0.202-0.019-0.385,0.131-0.404,0.336c-0.092,0.99-0.172,1.983-0.24,2.98c-0.014,0.205,0.141,0.382,0.346,0.396
	C180.504,291.205,180.513,291.205,180.521,291.205z M222.759,389.315c-0.131,0.158-0.108,0.392,0.05,0.523
	c0.769,0.634,1.546,1.259,2.332,1.872c0.068,0.054,0.149,0.079,0.229,0.079c0.111,0,0.22-0.049,0.293-0.143
	c0.126-0.161,0.098-0.395-0.064-0.521c-0.781-0.611-1.553-1.231-2.318-1.861C223.124,389.134,222.89,389.159,222.759,389.315z
	 M269.204,413.209c0.03,0.007,0.06,0.011,0.09,0.011c0.167,0,0.318-0.113,0.36-0.282c0.049-0.199-0.072-0.4-0.271-0.45
	c-0.962-0.239-1.92-0.489-2.873-0.752c-0.197-0.053-0.402,0.062-0.457,0.26c-0.054,0.198,0.062,0.403,0.259,0.457
	C267.271,412.717,268.235,412.969,269.204,413.209z M285.385,416.034c0.013,0.001,0.026,0.002,0.038,0.002
	c0.188,0,0.349-0.142,0.369-0.333c0.021-0.205-0.127-0.387-0.332-0.408c-0.987-0.102-1.97-0.216-2.951-0.343
	c-0.2-0.025-0.389,0.118-0.416,0.321c-0.026,0.204,0.118,0.39,0.321,0.416C283.401,415.817,284.391,415.932,285.385,416.034z
	 M328.653,186.039c0.033,0.009,0.066,0.013,0.099,0.013c0.163,0,0.313-0.108,0.358-0.273c0.054-0.198-0.062-0.402-0.26-0.457
	c-0.87-0.238-1.744-0.464-2.621-0.682c-0.076,0.241-0.166,0.473-0.277,0.696C326.856,185.56,327.757,185.793,328.653,186.039z
	 M356.147,400.267c-0.855,0.495-1.716,0.979-2.584,1.451c-0.18,0.099-0.247,0.324-0.149,0.504c0.067,0.124,0.195,0.194,0.326,0.194
	c0.06,0,0.121-0.015,0.178-0.045c0.873-0.477,1.74-0.963,2.6-1.461c0.178-0.102,0.239-0.33,0.136-0.507
	C356.551,400.225,356.322,400.164,356.147,400.267z M180.537,307.58c0.009,0,0.017,0,0.026-0.001
	c0.205-0.015,0.359-0.192,0.345-0.396c-0.069-0.985-0.125-1.974-0.17-2.966c-0.009-0.205-0.186-0.372-0.388-0.354
	c-0.205,0.009-0.363,0.183-0.354,0.388c0.045,0.998,0.102,1.993,0.171,2.984C180.18,307.43,180.343,307.58,180.537,307.58z
	 M325.993,412.464c-0.958,0.239-1.923,0.466-2.891,0.68c-0.2,0.044-0.326,0.243-0.282,0.443c0.038,0.173,0.192,0.291,0.363,0.291
	c0.026,0,0.054-0.003,0.081-0.009c0.974-0.216,1.944-0.445,2.91-0.685c0.199-0.049,0.32-0.251,0.271-0.451
	C326.394,412.535,326.193,412.414,325.993,412.464z M253.557,408.137c0.046,0.018,0.093,0.027,0.139,0.027
	c0.147,0,0.286-0.088,0.344-0.232c0.077-0.19-0.015-0.407-0.205-0.484c-0.922-0.372-1.838-0.756-2.748-1.151
	c-0.187-0.082-0.406,0.005-0.489,0.193c-0.081,0.189,0.005,0.407,0.193,0.489C251.708,407.376,252.629,407.762,253.557,408.137z
	 M333.844,410.214c-0.94,0.306-1.886,0.6-2.837,0.882c-0.197,0.059-0.308,0.265-0.25,0.462c0.048,0.161,0.196,0.266,0.356,0.266
	c0.035,0,0.07-0.005,0.106-0.015c0.957-0.284,1.908-0.58,2.854-0.888c0.195-0.064,0.302-0.274,0.239-0.468
	C334.248,410.257,334.038,410.151,333.844,410.214z M341.516,407.418c-0.917,0.371-1.84,0.731-2.768,1.08
	c-0.192,0.072-0.289,0.286-0.217,0.478c0.056,0.149,0.197,0.241,0.348,0.241c0.044,0,0.088-0.007,0.131-0.024
	c0.934-0.35,1.862-0.712,2.785-1.085c0.19-0.077,0.282-0.294,0.205-0.484C341.922,407.433,341.704,407.342,341.516,407.418z
	 M348.954,404.099c-0.886,0.433-1.778,0.855-2.677,1.266c-0.186,0.086-0.268,0.306-0.184,0.493c0.062,0.136,0.197,0.217,0.338,0.217
	c0.052,0,0.104-0.011,0.155-0.033c0.905-0.414,1.803-0.839,2.694-1.275c0.184-0.09,0.26-0.313,0.17-0.497
	C349.36,404.085,349.136,404.011,348.954,404.099z M261.302,410.952c0.038,0.012,0.077,0.018,0.115,0.018
	c0.157,0,0.303-0.1,0.353-0.257c0.063-0.195-0.044-0.405-0.239-0.468c-0.946-0.307-1.887-0.625-2.823-0.955
	c-0.194-0.07-0.406,0.033-0.474,0.226c-0.068,0.194,0.033,0.406,0.227,0.474C259.402,410.323,260.35,410.643,261.302,410.952z
	 M246.033,404.786c0.053,0.025,0.108,0.038,0.163,0.038c0.137,0,0.27-0.077,0.334-0.208c0.09-0.184,0.014-0.407-0.171-0.497
	c-0.893-0.436-1.779-0.883-2.658-1.341c-0.183-0.095-0.407-0.025-0.501,0.158c-0.095,0.181-0.024,0.406,0.158,0.501
	C244.244,403.897,245.135,404.347,246.033,404.786z M181.864,279.373c-0.205-0.038-0.394,0.104-0.427,0.306
	c-0.161,0.982-0.31,1.966-0.447,2.956c-0.028,0.203,0.114,0.391,0.317,0.419c0.017,0.003,0.034,0.004,0.051,0.004
	c0.183,0,0.342-0.135,0.367-0.321c0.136-0.983,0.284-1.962,0.444-2.937C182.204,279.597,182.067,279.406,181.864,279.373z
	 M181.391,315.727c0.017,0,0.034-0.001,0.052-0.004c0.203-0.028,0.345-0.216,0.316-0.419c-0.137-0.978-0.262-1.96-0.375-2.947
	c-0.023-0.203-0.208-0.352-0.411-0.326c-0.204,0.023-0.35,0.207-0.326,0.411c0.114,0.992,0.24,1.98,0.378,2.965
	C181.05,315.593,181.209,315.727,181.391,315.727z M183.499,271.346c-0.199-0.049-0.4,0.076-0.447,0.276
	c-0.23,0.968-0.447,1.94-0.653,2.917c-0.042,0.201,0.086,0.398,0.287,0.44c0.026,0.005,0.052,0.008,0.077,0.008
	c0.172,0,0.326-0.12,0.363-0.295c0.204-0.971,0.42-1.937,0.649-2.899C183.823,271.593,183.699,271.393,183.499,271.346z
	 M182.812,323.794c0.025,0,0.052-0.003,0.078-0.008c0.201-0.043,0.329-0.24,0.286-0.44c-0.206-0.967-0.399-1.939-0.58-2.914
	c-0.037-0.202-0.231-0.334-0.433-0.297c-0.202,0.037-0.335,0.231-0.297,0.433c0.183,0.981,0.378,1.958,0.584,2.931
	C182.486,323.674,182.641,323.794,182.812,323.794z M184.438,331.473c0.047,0.163,0.195,0.269,0.357,0.269
	c0.034,0,0.069-0.004,0.103-0.015c0.197-0.057,0.311-0.263,0.254-0.459c-0.273-0.95-0.534-1.906-0.784-2.866
	c-0.052-0.199-0.254-0.316-0.453-0.266c-0.198,0.052-0.317,0.255-0.266,0.453C183.901,329.555,184.163,330.516,184.438,331.473z
	 M238.767,400.916c0.059,0.034,0.123,0.05,0.186,0.05c0.128,0,0.253-0.067,0.322-0.186c0.103-0.177,0.042-0.405-0.135-0.507
	c-0.859-0.497-1.711-1.005-2.557-1.523c-0.175-0.107-0.404-0.051-0.511,0.123c-0.107,0.175-0.052,0.403,0.123,0.511
	C237.046,399.905,237.903,400.416,238.767,400.916z M185.694,263.453c-0.197-0.062-0.404,0.047-0.465,0.243
	c-0.297,0.95-0.583,1.905-0.856,2.864c-0.056,0.197,0.058,0.403,0.255,0.459c0.034,0.009,0.069,0.014,0.102,0.014
	c0.161,0,0.31-0.106,0.357-0.27c0.272-0.954,0.555-1.902,0.851-2.846C185.999,263.723,185.89,263.515,185.694,263.453z
	 M196.354,358.289c-0.176,0.105-0.235,0.333-0.13,0.509c0.507,0.857,1.025,1.706,1.552,2.548c0.071,0.112,0.192,0.174,0.315,0.174
	c0.067,0,0.136-0.018,0.197-0.057c0.174-0.109,0.226-0.338,0.117-0.512c-0.524-0.836-1.039-1.681-1.543-2.532
	C196.759,358.244,196.531,358.185,196.354,358.289z M365.631,203.568c0.116,0,0.23-0.054,0.302-0.156
	c0.119-0.167,0.08-0.399-0.087-0.518c-0.813-0.578-1.632-1.146-2.46-1.704c-0.17-0.113-0.4-0.07-0.516,0.1
	c-0.115,0.17-0.07,0.401,0.101,0.516c0.822,0.554,1.637,1.119,2.444,1.693C365.48,203.546,365.556,203.568,365.631,203.568z
	 M375.909,385.893c-0.736,0.662-1.479,1.315-2.232,1.959c-0.156,0.133-0.174,0.368-0.041,0.524c0.073,0.086,0.178,0.13,0.282,0.13
	c0.086,0,0.171-0.029,0.242-0.089c0.757-0.648,1.505-1.305,2.245-1.97c0.153-0.137,0.165-0.372,0.028-0.524
	C376.295,385.768,376.06,385.756,375.909,385.893z M363.058,395.941c-0.818,0.553-1.644,1.096-2.478,1.628
	c-0.173,0.111-0.224,0.34-0.114,0.513c0.071,0.111,0.192,0.172,0.313,0.172c0.069,0,0.138-0.019,0.2-0.058
	c0.839-0.536,1.67-1.082,2.494-1.64c0.17-0.115,0.215-0.345,0.099-0.516C363.459,395.871,363.228,395.826,363.058,395.941z
	 M372.139,208.551c0.107,0,0.213-0.046,0.287-0.136c0.13-0.159,0.107-0.392-0.052-0.523c-0.77-0.633-1.548-1.256-2.334-1.87
	c-0.163-0.125-0.395-0.099-0.522,0.064c-0.126,0.162-0.097,0.395,0.065,0.521c0.781,0.61,1.554,1.229,2.319,1.858
	C371.972,208.523,372.056,208.551,372.139,208.551z M369.656,391.142c-0.779,0.609-1.566,1.208-2.361,1.798
	c-0.165,0.122-0.2,0.355-0.077,0.519c0.073,0.098,0.185,0.15,0.298,0.15c0.077,0,0.155-0.024,0.221-0.073
	c0.799-0.593,1.592-1.196,2.375-1.809c0.162-0.126,0.191-0.36,0.064-0.521C370.05,391.041,369.816,391.015,369.656,391.142z
	 M333.862,186.818c-0.194-0.062-0.404,0.044-0.467,0.239c-0.063,0.195,0.044,0.405,0.239,0.468c0.946,0.306,1.888,0.624,2.824,0.953
	c0.041,0.015,0.083,0.021,0.123,0.021c0.153,0,0.297-0.095,0.35-0.248c0.068-0.193-0.033-0.406-0.227-0.473
	C335.763,187.445,334.815,187.126,333.862,186.818z M341.609,189.626c-0.188-0.076-0.407,0.015-0.483,0.206
	c-0.077,0.19,0.015,0.407,0.206,0.484c0.922,0.371,1.838,0.754,2.748,1.148c0.049,0.021,0.099,0.03,0.148,0.03
	c0.144,0,0.28-0.084,0.341-0.224c0.081-0.188-0.005-0.407-0.193-0.489C343.459,190.385,342.537,189.999,341.609,189.626z
	 M356.407,196.832c-0.177-0.102-0.405-0.041-0.507,0.136c-0.103,0.178-0.042,0.405,0.136,0.507c0.859,0.496,1.712,1.002,2.557,1.52
	c0.06,0.037,0.127,0.054,0.194,0.054c0.125,0,0.247-0.063,0.317-0.178c0.107-0.175,0.052-0.403-0.123-0.511
	C358.129,197.84,357.272,197.33,356.407,196.832z M349.137,192.969c-0.182-0.089-0.406-0.013-0.496,0.172
	c-0.09,0.184-0.013,0.407,0.171,0.497c0.893,0.435,1.78,0.881,2.66,1.337c0.055,0.028,0.113,0.042,0.171,0.042
	c0.134,0,0.263-0.073,0.329-0.2c0.095-0.182,0.024-0.406-0.158-0.501C350.928,193.856,350.036,193.407,349.137,192.969z
	 M378.285,213.971c0.099,0,0.197-0.039,0.27-0.116c0.141-0.149,0.134-0.384-0.015-0.525c-0.724-0.684-1.458-1.36-2.198-2.026
	c-0.15-0.137-0.387-0.125-0.525,0.028c-0.137,0.153-0.125,0.387,0.028,0.525c0.736,0.662,1.464,1.334,2.184,2.014
	C378.101,213.937,378.193,213.971,378.285,213.971z M392.291,367.723c-0.583,0.801-1.177,1.595-1.78,2.38
	c-0.125,0.163-0.094,0.396,0.068,0.521c0.067,0.052,0.147,0.077,0.226,0.077c0.111,0,0.221-0.05,0.295-0.145
	c0.607-0.792,1.204-1.59,1.792-2.396c0.12-0.165,0.084-0.398-0.082-0.519C392.644,367.521,392.411,367.557,392.291,367.723z
	 M389.369,226.017c0.081,0,0.163-0.026,0.232-0.081c0.16-0.128,0.186-0.362,0.058-0.522c-0.622-0.778-1.254-1.548-1.894-2.309
	c-0.133-0.157-0.367-0.176-0.524-0.045c-0.157,0.132-0.177,0.366-0.045,0.523c0.638,0.756,1.265,1.521,1.883,2.294
	C389.152,225.969,389.26,226.017,389.369,226.017z M396.87,360.951c-0.527,0.841-1.064,1.674-1.611,2.5
	c-0.113,0.171-0.066,0.402,0.104,0.515c0.063,0.041,0.134,0.062,0.205,0.062c0.12,0,0.238-0.059,0.31-0.166
	c0.551-0.832,1.092-1.671,1.621-2.516c0.109-0.174,0.056-0.403-0.117-0.512S396.979,360.777,396.87,360.951z M387.253,374.157
	c-0.637,0.758-1.283,1.508-1.94,2.25c-0.136,0.153-0.122,0.388,0.032,0.524c0.07,0.063,0.158,0.094,0.246,0.094
	c0.102,0,0.205-0.042,0.278-0.126c0.661-0.747,1.312-1.501,1.953-2.265c0.132-0.157,0.112-0.391-0.046-0.523
	C387.619,373.979,387.385,374.001,387.253,374.157z M394.257,232.583c0.073,0,0.147-0.021,0.211-0.066
	c0.169-0.116,0.211-0.348,0.094-0.517c-0.566-0.819-1.143-1.631-1.729-2.434c-0.122-0.165-0.355-0.202-0.519-0.081
	c-0.165,0.121-0.202,0.353-0.081,0.519c0.583,0.798,1.156,1.604,1.719,2.418C394.023,232.527,394.139,232.583,394.257,232.583z
	 M381.784,380.223c-0.688,0.712-1.385,1.415-2.091,2.11c-0.147,0.144-0.148,0.379-0.004,0.525c0.073,0.074,0.169,0.111,0.265,0.111
	c0.094,0,0.189-0.036,0.26-0.107c0.71-0.699,1.412-1.407,2.104-2.123c0.143-0.148,0.139-0.383-0.009-0.525
	C382.161,380.072,381.925,380.076,381.784,380.223z M384.038,219.803c0.09,0,0.181-0.033,0.252-0.098
	c0.151-0.139,0.16-0.374,0.021-0.525c-0.675-0.732-1.358-1.457-2.051-2.172c-0.143-0.147-0.378-0.151-0.525-0.009
	c-0.147,0.143-0.152,0.378-0.009,0.525c0.688,0.711,1.368,1.431,2.039,2.159C383.838,219.763,383.938,219.803,384.038,219.803z
	 M189.14,219.194c1.099,1.28,6.188,5.868,7.642,7.329c1.454-1.461,6.543-6.049,7.642-7.329c1.905-2.218,3.663-4.76,4.845-7.521
	c1.687-3.94,1.813-9.627-3.013-10.751c-0.825-0.192-1.704-0.232-2.581-0.142c-1.445,0.148-2.887,0.65-4.082,1.406
	c-0.513,0.325-1.969,1.648-2.721,2.335c-0.027,0.024-0.059,0.036-0.09,0.052c-0.031-0.016-0.063-0.027-0.09-0.052
	c-0.752-0.688-2.208-2.011-2.721-2.335c-1.195-0.756-2.637-1.258-4.082-1.406c-0.877-0.09-1.756-0.05-2.581,0.142
	c-4.826,1.124-4.7,6.811-3.013,10.751C185.477,214.434,187.235,216.976,189.14,219.194z M280.641,162.679h-8.509v16.083h8.509
	V162.679z"></path>
<path id="color_x5F_1" fill="#0984E3" d="M137.862,360.861c-7.854-19.86-11.973-41.224-11.973-63.223
	c0-32.04,8.725-62.735,25.032-89.39c0.163,0.113,0.332,0.218,0.509,0.316c-15.879,25.968-25.041,56.47-25.041,89.074
	c0,22.251,4.269,43.523,12.026,63.044C138.224,360.734,138.04,360.794,137.862,360.861z M297.638,126.389
	c67.001,0,125.127,38.683,153.247,94.883c0.18-0.088,0.369-0.166,0.563-0.238c-8.179-16.383-19.039-31.515-32.364-44.841
	c-32.439-32.439-75.569-50.304-121.445-50.304s-89.006,17.865-121.445,50.304c-3.779,3.779-7.332,7.721-10.707,11.78
	c0.291-0.086,0.591-0.143,0.902-0.174C197.825,150.292,244.984,126.389,297.638,126.389z M159.218,196.935
	c0.911-1.249,1.842-2.483,2.786-3.706v-0.621c0-0.129,0.028-0.251,0.038-0.378c-1.118,1.434-2.229,2.873-3.299,4.337
	C158.909,196.683,159.067,196.806,159.218,196.935z M254.174,463.852c0.078-0.173,0.151-0.347,0.23-0.519
	c-0.942-0.246-1.884-0.491-2.819-0.753c-0.079,0.17-0.154,0.343-0.232,0.513C252.292,463.354,253.231,463.607,254.174,463.852z
	 M222.458,452.146c0.039-0.211,0.08-0.421,0.119-0.632c-0.836-0.41-1.671-0.821-2.5-1.243c-0.04,0.211-0.079,0.422-0.119,0.634
	C220.788,451.326,221.622,451.739,222.458,452.146z M211.847,446.495c0.011-0.228,0.022-0.456,0.033-0.683
	c-0.905-0.526-1.796-1.073-2.69-1.615c-0.013,0.236-0.026,0.471-0.039,0.707C210.045,445.443,210.944,445.973,211.847,446.495z
	 M229.971,455.584c0.048-0.197,0.093-0.395,0.141-0.591c-0.867-0.373-1.724-0.764-2.583-1.151c-0.05,0.201-0.095,0.403-0.145,0.604
	C228.245,454.831,229.106,455.213,229.971,455.584z M249.268,462.506c0.085-0.175,0.17-0.349,0.255-0.524
	c-0.898-0.263-1.793-0.532-2.684-0.809c-0.085,0.175-0.173,0.348-0.257,0.523C247.475,461.972,248.37,462.244,249.268,462.506z
	 M277.618,468.229c0.009-0.17,0.024-0.339,0.044-0.507c-5.357-0.625-10.637-1.505-15.833-2.615c0.072,0.198,0.152,0.392,0.221,0.591
	C267.179,466.773,272.371,467.624,277.618,468.229z M144.092,373.404c-0.169,0.106-0.347,0.202-0.53,0.293
	c8.209,16.592,19.158,31.913,32.631,45.385c8.43,8.43,17.586,15.869,27.321,22.272c0.21-0.111,0.419-0.225,0.63-0.332
	C178.585,424.298,157.737,400.944,144.092,373.404z M238.122,458.825c0.013-0.035,0.026-0.071,0.039-0.107
	c0.056-0.15,0.117-0.299,0.173-0.449c-0.865-0.321-1.736-0.631-2.594-0.965c-0.068,0.183-0.143,0.363-0.211,0.546
	C236.39,458.183,237.256,458.506,238.122,458.825z M419.083,419.082c32.438-32.438,50.304-75.569,50.304-121.445
	c0-22.209-4.199-43.77-12.2-63.791c-0.172,0.087-0.35,0.167-0.534,0.24c7.885,19.66,12.233,41.106,12.233,63.551
	c0,78.855-53.578,145.42-126.239,165.235l0.203,0.526C371.412,455.656,397.594,440.571,419.083,419.082z M291.104,468.762
	c-0.002,0.164-0.008,0.327-0.02,0.49c1.208,0.045,2.417,0.078,3.629,0.102l-0.053-0.496
	C293.472,468.837,292.286,468.806,291.104,468.762z M330.957,465.622c-8.114,1.607-16.429,2.644-24.907,3.056l-0.053,0.508
	c8.559-0.407,17.003-1.439,25.28-3.073L330.957,465.622z M196.048,496.798c-4.695-8.96-9.37-17.928-14.347-26.731
	c-0.431,2.416-0.596,4.859-0.534,7.295c1.939,3.903,4.312,7.627,6.173,11.549c1.598,3.367,3.121,6.769,4.609,10.186h5.314
	C196.857,498.331,196.45,497.565,196.048,496.798z M197.492,445.154c-1.402,1.06-2.738,2.206-4.001,3.426
	c0.948,2.887,1.902,5.772,2.938,8.63c0.612,1.688-2.076,2.409-2.682,0.739c-0.852-2.35-1.646-4.721-2.43-7.094
	c-0.476,0.532-0.949,1.067-1.398,1.621c5.76,15.316,10.553,30.965,15.325,46.622h0.884
	C202.064,481.354,199.374,463.305,197.492,445.154z M187.959,455.095c-1.091,1.583-2.067,3.241-2.921,4.959
	c1.948,3.677,3.887,7.359,5.672,11.117c0.765,1.61-1.634,3.019-2.401,1.404c-1.491-3.139-3.085-6.225-4.699-9.3
	c-0.361,0.931-0.687,1.877-0.972,2.836c5.843,10.167,11.241,20.578,16.691,30.962c0.355,0.677,0.718,1.35,1.079,2.024h1.956
	C197.87,484.322,193.336,469.563,187.959,455.095z M219.959,450.905c0.039-0.211,0.079-0.423,0.119-0.634
	c0.854-4.555,1.747-9.107,2.628-13.658c-0.19-0.003-0.379-0.014-0.568-0.015c-3.305-0.007-6.581,0.44-9.758,1.274
	c-0.193,2.646-0.363,5.292-0.499,7.939c-0.012,0.228-0.022,0.455-0.033,0.683c-0.395,8.101-0.438,16.208,0.32,24.332
	c0.166,1.784-2.616,1.767-2.781,0c-0.808-8.656-0.703-17.293-0.235-25.924c0.013-0.235,0.025-0.471,0.039-0.707
	c0.103-1.822,0.216-3.644,0.346-5.465c-1.847,0.632-3.645,1.408-5.391,2.291c-0.212,0.107-0.42,0.221-0.63,0.332
	c-1.165,0.613-2.312,1.263-3.418,1.98c1.901,18.766,4.641,37.428,8.87,55.764h6.154
	C214.541,483.003,216.968,466.939,219.959,450.905z M239.219,484.361c-2.09,4.697-4.508,9.646-6.743,14.737h4.797
	c1.905-5.313,3.857-10.608,5.883-15.877c2.597-6.752,5.189-13.541,8.198-20.128c0.078-0.171,0.153-0.343,0.232-0.513
	c0.471-1.023,0.952-2.041,1.446-3.053c0.897-1.836,1.821-3.673,2.729-5.521c-0.427-0.562-0.867-1.113-1.321-1.654
	c-1.254,2.348-2.486,4.708-3.678,7.091c-0.422,0.843-0.824,1.694-1.238,2.54c-0.085,0.174-0.17,0.349-0.255,0.524
	C245.755,469.716,242.48,477.032,239.219,484.361z M217.867,499.098h4.924c2.875-14.069,7.762-27.862,12.689-41.118
	c0.016-0.043,0.034-0.086,0.05-0.129c0.068-0.183,0.142-0.363,0.211-0.546c1.933-5.167,3.981-10.286,6.151-15.351
	c-2.228-1.249-4.565-2.29-6.97-3.125c-1.799,5.332-3.455,10.705-4.809,16.164c-0.049,0.197-0.094,0.394-0.141,0.591
	c-0.696,2.855-1.314,5.731-1.816,8.64c-0.304,1.763-2.984,1.011-2.682-0.739c0.525-3.044,1.176-6.054,1.912-9.039
	c0.05-0.201,0.094-0.404,0.145-0.604c1.342-5.347,2.974-10.613,4.739-15.839c-2.237-0.611-4.523-1.039-6.839-1.247
	c-0.959,4.916-1.933,9.836-2.852,14.759c-0.039,0.211-0.08,0.421-0.119,0.632C219.556,467.773,217.259,483.434,217.867,499.098z
	 M238.122,458.825c-4.822,12.978-9.631,26.493-12.495,40.273h3.857c2.242-5.193,4.694-10.242,6.843-15.043
	c3.353-7.487,6.684-14.977,10.255-22.359c0.085-0.175,0.172-0.348,0.257-0.523c0.777-1.599,1.549-3.2,2.353-4.786
	c1.061-2.095,2.166-4.164,3.284-6.226c-0.618-0.646-1.256-1.272-1.911-1.88c-2.011,3.245-4.025,6.488-6.163,9.652
	c-0.998,1.476-3.406,0.083-2.401-1.404c2.235-3.308,4.337-6.7,6.439-10.093c-1.329-1.087-2.717-2.102-4.158-3.032
	c-2.096,4.906-4.078,9.863-5.946,14.867c-0.056,0.15-0.117,0.299-0.173,0.449C238.148,458.754,238.135,458.79,238.122,458.825z
	 M246.523,482.185c-2.175,5.61-4.263,11.252-6.299,16.913h7.578c5.011-6.926,10.719-13.454,16.389-19.817
	c0.048-3.29-0.283-6.586-1.039-9.813c-0.035-0.148-0.078-0.293-0.114-0.441c-3.978,4.538-7.426,9.414-9.432,15.069
	c-0.595,1.678-3.281,0.951-2.682-0.739c2.351-6.626,6.516-12.197,11.226-17.392c-0.03-0.09-0.069-0.177-0.1-0.267
	c-0.069-0.199-0.149-0.393-0.221-0.591c-1.085-2.989-2.508-5.848-4.245-8.513c-1.098,2.234-2.153,4.482-3.18,6.738
	c-0.079,0.172-0.152,0.347-0.23,0.519C251.443,469.88,248.926,475.986,246.523,482.185z M334.333,346.448
	c-0.953-5.658-2.207-10.474-3.479-14.665c-0.844,0.939-1.698,1.905-2.561,2.903c-0.537,1.039-1.538,1.775-2.708,1.964
	c-3.101,0.502-5.937-0.965-8.865-2.835c-2.015-0.172-4.057,0.026-6.081,0.296c-0.456,0.061-0.673-0.69-0.204-0.902
	c1.782-0.808,3.941-1.346,6.069-1.41c-0.005-0.115-0.007-0.228-0.009-0.34c-0.109-0.013-0.218-0.029-0.328-0.039
	c-2.015-0.172-4.057,0.026-6.081,0.296c-0.456,0.061-0.673-0.69-0.204-0.902c1.994-0.904,4.461-1.471,6.826-1.411
	c0.001-0.004,0.002-0.008,0.003-0.013c-0.247-0.038-0.495-0.07-0.745-0.092c-2.015-0.172-4.057,0.026-6.081,0.296
	c-0.456,0.061-0.673-0.69-0.204-0.902c2.298-1.041,5.222-1.64,7.896-1.342c0.07-0.113,0.147-0.225,0.225-0.337
	c-0.036-0.003-0.072-0.01-0.108-0.013c-2.015-0.172-4.057,0.026-6.081,0.296c-0.456,0.061-0.673-0.69-0.204-0.902
	c3.058-1.386,7.223-1.983,10.433-0.73c1.483,0.203,2.943,0.547,4.367,1.014c0.636-0.978,1.291-2.017,1.96-3.106
	c-2.146-6.349-3.634-11.055-2.604-15.511c1.956-8.465,4.138-12.98,6.327-21.388c0.336-1.291,0.689-2.626,1.038-3.985
	c-3.061-4.117-6.151-8.287-9.701-13.313c1.415-7.49,4.763-11.518,10.665-11.518l0,0c-0.426-1.088-0.939-2.149-1.554-3.13
	c-1.27-2.025-2.961-3.711-5.16-4.601c-0.911-0.369-1.864-0.571-2.834-0.668c-1.531-0.153-3.107-0.016-4.646,0.252l0.035,0.521
	c-3.952,2.338-7.327,5.928-10.358,9.98l-1.578,0.166l-0.38-5.642c-2.488,1.447-4.971,3.086-7.256,4.766
	c-3.046,2.24-5.746,4.547-7.625,6.559c-7.043,7.541-7.444,12.777-6.091,17.76c0.461,1.697,1.124,3.366,1.798,5.085
	c1.557,3.968,3.169,8.21,2.462,13.724c-0.606,4.734-1.295,9.56-2.085,14.453c-1.699,10.525-3.911,21.394-7.107,32.559c0,0,0,0,0,0
	C296.318,355.955,320.134,354.023,334.333,346.448z"></path>
</svg>